<svg width="17" height="17" viewBox="0 0 17 17" fill="none" xmlns="http://www.w3.org/2000/svg">
<path d="M8.50005 4.62473C6.36017 4.62686 4.62688 6.36015 4.62476 8.49931C4.62688 10.6385 6.36017 12.3718 8.49934 12.3739C10.6385 12.3718 12.3718 10.6385 12.3739 8.49931C12.3704 6.36086 10.6378 4.62827 8.50005 4.62473ZM14.0605 4.96969C15.0358 4.96969 15.827 4.17848 15.827 3.20311C15.827 2.22773 15.0358 1.43652 14.0605 1.43652C13.0851 1.43652 12.2939 2.22773 12.2939 3.20311C12.2939 4.17848 13.0851 4.96969 14.0605 4.96969Z" fill="#222426"/>
<path d="M8.5 17C13.1885 17 17 13.1885 17 8.5C17 7.27458 16.7443 6.08954 16.2364 4.97746L16.2357 4.97675L16.1628 4.81383L16.043 4.947C15.754 5.27567 15.3857 5.52783 14.977 5.68083L14.8644 5.72404L14.9111 5.83383C15.2469 6.61796 15.4424 7.531 15.4424 8.48937C15.4424 8.49221 15.4424 8.49433 15.4424 8.49646C15.4424 12.325 12.3278 15.4424 8.49646 15.4424C4.66508 15.4424 1.55338 12.3278 1.55338 8.49929C1.55338 4.67075 4.67146 1.55338 8.49929 1.55338C9.53842 1.55338 10.5414 1.77933 11.4743 2.22417L11.5841 2.27729L11.6308 2.1675C11.8107 1.75525 12.0771 1.40958 12.4093 1.14254L12.4142 1.13829L12.5538 1.02567L12.3944 0.942792C11.2696 0.3485 9.93508 0 8.51983 0C8.51346 0 8.50637 0 8.5 0C3.81154 0 0 3.81154 0 8.5C0 13.1885 3.81154 17 8.5 17Z" fill="#222426"/>
</svg>
